<?xml version="1.0" standalone="no"?>
<!DOCTYPE svg PUBLIC "-//W3C//DTD SVG 1.1//EN"
"http://www.w3.org/Graphics/SVG/1.1/DTD/svg11.dtd">

<svg width="210" height="204" view_box="0 0 210 204"
xmlns="http://www.w3.org/2000/svg"
xmlns:link="http://www.w3.org/1999/xlink">\n\n<desc>Généré par Mocodo 2.3.7 le Fri, 17 Jul 2020 00:41:20</desc>

<rect id="frame" x="0" y="0" width="210" height="204" fill="#f7f7f7" stroke="none" stroke-width="0"/>

<!-- Association CONTIENT -->
<line x1="48" y1="60" x2="48" y2="161" stroke="#9970ab" stroke-width="2"/>
<text x="53.0" y="128" fill="#1b7837" font-family="Verdana" font-size="12">1,1</text>
<line x1="160" y1="161" x2="48" y2="161" stroke="#9970ab" stroke-width="2"/>
<text x="92" y="178.0" fill="#1b7837" font-family="Verdana" font-size="12">0,N</text>
<g id="association-CONTIENT">
	<path d="M 73 136 a 14 14 90 0 1 14 14 V 161 h -78 V 150 a 14 14 90 0 1 14 -14" fill="#c2a5cf" stroke="#c2a5cf" stroke-width="0"/>
	<path d="M 87 161.0 v 11 a 14 14 90 0 1 -14 14 H 23 a 14 14 90 0 1 -14 -14 V 161.0 H 78" fill="#e7d4e8" stroke="#e7d4e8" stroke-width="0"/>
	<rect x="9" y="136" width="78" height="50" fill="none" rx="14" stroke="#9970ab" stroke-width="2"/>
	<line x1="9" y1="161" x2="87" y2="161" stroke="#9970ab" stroke-width="1"/>
	<text x="16" y="153.7" fill="#000000" font-family="Verdana" font-size="12">CONTIENT</text>
</g>

<!-- Entity POST -->
<g id="entity-POST">
	<g id="frame-POST">
		<rect x="18" y="9" width="60" height="25" fill="#a6dba0" stroke="#a6dba0" stroke-width="0"/>
		<rect x="18" y="34.0" width="60" height="77" fill="#d9f0d3" stroke="#d9f0d3" stroke-width="0"/>
		<rect x="18" y="9" width="60" height="102" fill="none" stroke="#5aae61" stroke-width="2"/>
		<line x1="18" y1="34" x2="78" y2="34" stroke="#5aae61" stroke-width="1"/>
	</g>
	<text x="31" y="26.7" fill="#000000" font-family="Verdana" font-size="12">POST</text>
	<text x="23" y="51.7" fill="#000000" font-family="Verdana" font-size="12">slug</text>
	<line x1="23" y1="54" x2="49" y2="54" stroke="#000000" stroke-width="1"/>
	<text x="23" y="68.8" fill="#000000" font-family="Verdana" font-size="12">titre</text>
	<text x="23" y="85.8" fill="#000000" font-family="Verdana" font-size="12">extrait</text>
	<text x="23" y="102.8" fill="#000000" font-family="Verdana" font-size="12">contenu</text>
</g>

<!-- Entity CATEGORIE -->
<g id="entity-CATEGORIE">
	<g id="frame-CATEGORIE">
		<rect x="119" y="127" width="82" height="25" fill="#a6dba0" stroke="#a6dba0" stroke-width="0"/>
		<rect x="119" y="152.0" width="82" height="43" fill="#d9f0d3" stroke="#d9f0d3" stroke-width="0"/>
		<rect x="119" y="127" width="82" height="68" fill="none" stroke="#5aae61" stroke-width="2"/>
		<line x1="119" y1="152" x2="201" y2="152" stroke="#5aae61" stroke-width="1"/>
	</g>
	<text x="124" y="144.7" fill="#000000" font-family="Verdana" font-size="12">CATEGORIE</text>
	<text x="124" y="169.8" fill="#000000" font-family="Verdana" font-size="12">label</text>
	<line x1="124" y1="172" x2="153" y2="172" stroke="#000000" stroke-width="1"/>
	<text x="124" y="186.8" fill="#000000" font-family="Verdana" font-size="12">route</text>
</g>
</svg>
